<svg width="108" height="108" viewBox="0 0 108 108" fill="none" xmlns="http://www.w3.org/2000/svg">
<g filter="url(#filter0_d_582_5288)">
<rect x="20" y="12" width="68" height="68" rx="13.8" fill="white"/>
<path d="M68.6668 59.273H51.585C50.7375 59.273 50.0406 58.5762 50.0406 57.7287C50.0406 56.8812 50.7375 56.1843 51.585 56.1843H68.6668C69.5143 56.1843 70.2112 56.8812 70.2112 57.7287C70.2112 58.595 69.5143 59.273 68.6668 59.273Z" fill="#24A19C"/>
<path d="M68.6668 47.4267H51.585C50.7375 47.4267 50.0406 46.7299 50.0406 45.8824C50.0406 45.0349 50.7375 44.3381 51.585 44.3381H68.6668C69.5143 44.3381 70.2112 45.0349 70.2112 45.8824C70.2112 46.7299 69.5143 47.4267 68.6668 47.4267Z" fill="#24A19C"/>
<path d="M68.6668 35.5619H51.585C50.7375 35.5619 50.0406 34.8651 50.0406 34.0176C50.0406 33.1701 50.7375 32.4732 51.585 32.4732H68.6668C69.5143 32.4732 70.2112 33.1701 70.2112 34.0176C70.2112 34.8651 69.5143 35.5619 68.6668 35.5619Z" fill="#24A19C"/>
<path d="M40.2473 38.1232C39.833 38.1232 39.4375 37.9537 39.155 37.6712L37.4411 35.9574C36.8385 35.3547 36.8385 34.3754 37.4411 33.7727C38.0438 33.17 39.0231 33.17 39.6258 33.7727L40.2473 34.3942L44.2776 30.3639C44.8803 29.7612 45.8596 29.7612 46.4623 30.3639C47.065 30.9665 47.065 31.9459 46.4623 32.5485L41.3396 37.6712C41.0383 37.9537 40.6616 38.1232 40.2473 38.1232Z" fill="#24A19C"/>
<path d="M40.2473 49.9882C39.8518 49.9882 39.4563 49.8375 39.155 49.5362L37.4411 47.8224C36.8385 47.2197 36.8385 46.2404 37.4411 45.6377C38.0438 45.035 39.0231 45.035 39.6258 45.6377L40.2473 46.2592L44.2776 42.2289C44.8803 41.6262 45.8596 41.6262 46.4623 42.2289C47.065 42.8315 47.065 43.8109 46.4623 44.4135L41.3396 49.5362C41.0383 49.8375 40.6428 49.9882 40.2473 49.9882Z" fill="#24A19C"/>
<path d="M40.2473 61.2882C39.8518 61.2882 39.4563 61.1375 39.155 60.8362L37.4411 59.1223C36.8385 58.5197 36.8385 57.5403 37.4411 56.9377C38.0438 56.335 39.0231 56.335 39.6258 56.9377L40.2473 57.5592L44.2776 53.5288C44.8803 52.9262 45.8596 52.9262 46.4623 53.5288C47.065 54.1315 47.065 55.1108 46.4623 55.7135L41.3396 60.8362C41.0383 61.1375 40.6428 61.2882 40.2473 61.2882Z" fill="#24A19C"/>
</g>
<defs>
<filter id="filter0_d_582_5288" x="0" y="0" width="108" height="108" filterUnits="userSpaceOnUse" color-interpolation-filters="sRGB">
<feFlood flood-opacity="0" result="BackgroundImageFix"/>
<feColorMatrix in="SourceAlpha" type="matrix" values="0 0 0 0 0 0 0 0 0 0 0 0 0 0 0 0 0 0 127 0" result="hardAlpha"/>
<feOffset dy="8"/>
<feGaussianBlur stdDeviation="10"/>
<feComposite in2="hardAlpha" operator="out"/>
<feColorMatrix type="matrix" values="0 0 0 0 0.0925591 0 0 0 0 0.533529 0 0 0 0 0.51589 0 0 0 0.4 0"/>
<feBlend mode="normal" in2="BackgroundImageFix" result="effect1_dropShadow_582_5288"/>
<feBlend mode="normal" in="SourceGraphic" in2="effect1_dropShadow_582_5288" result="shape"/>
</filter>
</defs>
</svg>
